<svg width="1920" height="1080" viewBox="0 0 1920 1080" xmlns="http://www.w3.org/2000/svg">
<path d="M1365,548.9999999999999C1364.7936437534333,613.5493715758294,1363.6098634631956,740.1961510108001,1304.2666661696167,792.2302070456815C1244.9234688760378,844.2642630805628,1096.0685939334626,854.5310362573402,1008.9408162385264,861.2043362092879C921.8130385435903,867.8776361612356,839.8875915055404,864.3652955169076,781.5000000000001,832.2700067573675C723.1124084944598,800.1747179978273,685.7627226710704,733.7205304027957,658.6152672052845,668.6326036520468C631.4678117394985,603.5446769012979,589.8011450728318,508.3078012647428,618.6152672052843,441.7424462528743C647.4293893377369,375.17709124100577,758.4725171237438,305.9146991862443,831.4999999999998,269.2404735808356C904.5274828762557,232.56624797542688,977.7793638546502,199.08150861877712,1056.7801644628198,221.69709262042193C1135.7809650709894,244.31267662206673,1254.134831059487,350.38349302744143,1305.504803649017,404.93397759070444C1356.8747762385472,459.48446215396746,1365.2063562465667,484.45062842417036,1365,548.9999999999999C1364.7936437534333,613.5493715758294,1363.6098634631956,740.1961510108001,1304.2666661696167,792.2302070456815" fill="#df6688"/></svg>