<?xml version="1.0" standalone="no"?>
<!DOCTYPE svg PUBLIC "-//W3C//DTD SVG 20010904//EN"
 "http://www.w3.org/TR/2001/REC-SVG-20010904/DTD/svg10.dtd">
<svg version="1.0" xmlns="http://www.w3.org/2000/svg"
 width="64.000000pt" height="64.000000pt" viewBox="0 0 64.000000 64.000000"
 preserveAspectRatio="xMidYMid meet">

<g transform="translate(0.000000,64.000000) scale(0.100000,-0.100000)"
fill="#000000" stroke="none">
<path d="M261 629 c-149 -30 -254 -157 -255 -309 0 -88 28 -156 93 -221 65
-64 132 -92 221 -92 89 0 156 28 221 92 64 65 92 132 92 221 0 196 -182 348
-372 309z m242 -248 c24 -9 27 -16 27 -53 0 -59 -10 -70 -56 -66 -34 3 -39 7
-42 30 -3 24 -8 27 -58 34 -30 3 -78 3 -108 0 -50 -7 -55 -10 -58 -34 -3 -23
-8 -27 -42 -30 -24 -2 -42 2 -47 10 -12 19 -11 96 2 103 39 25 323 29 382 6z"/>
</g>
</svg>
