<?xml version="1.0" encoding="UTF-8"?>
<svg version="1.1" viewBox="0 0 2048 2048" width="1280" height="1280" xmlns="http://www.w3.org/2000/svg">
<path transform="translate(1392)" d="m0 0h44l1 4 2 1v2l4 2 11 9 10 9 4 3v2l4 2 336 336 5 6 7 6 6 7 6 5 5 6 7 6 5 6 7 6 5 6 7 6 6 7 6 5 5 6 7 6 4 4v2l4 2 6 7 6 5 5 6 7 6 5 6 7 6 6 7 6 5 6 7 6 5 6 7 6 5 4 4v2l4 2 5 6 8 7 5 5v2h2l7 8 13 13 10 14 8 17 1 4v11l-4 14-9 14-12 11-19 14-20 13-14 7-17 5-28 5-18 5h-21l-10-3h-11l-7 1-12-5-28-10-10-5-9 10-8 11-9 11-8 10-13 15-9 10-7 8-12 14-11 14-9 11-15 16-9 11-6 8h-2l-2 4-12 14-9 10-7 8-12 14-9 11-10 13-8 8-8 10h-2l-2 4-22 26-7 8-9 10-7 8-12 14-11 14-9 11-13 14-9 11-9 10-9 11-11 12-9 11-11 12-9 11-10 11-7 8-14 17-11 13-12 14-9 11-10 11-7 8-12 14-11 12-8 10h-2l-2 4-10 12-7 8-11 11h-2l4 10 10 14 10 15 9 16 7 16 9 25 6 19 4 17 2 15v13l1 5v16l-5 37-5 23-5 16-11 25-9 16-10 14-11 14-8 10-9 10-11 9-17 9-8 3h-9l-13-4-13-7-17-14-12-12-6-5-7-8-279-279-8-5-4-1-8 6-10 9-20 20-5 6-4 4h-2l-2 4-16 16h-2l-2 4-14 13-2 3h-2l-2 4-8 7-8 9-8 7-4 5-8 7-221 221-8 7-13 13-8 7-13 12-9 9-8 7-9 9-8 7-14 13-8 7-15 13-14 12-8 7-16 15-14 12-11 10-11 9-14 12-8 7-30 26-14 12-8 7-15 14-14 11-13 11-13 10-18 14-13 11-10 8-9 8-28 22-10 9-11 8-15 10-23 12v3h-37l3-3-1-4-9-9-8-7-8-12-4-14v-8l6-15 6-12 9-14 10-13 11-13 7-9 10-13 2-3h2l2-4 10-13 11-14 11-13 13-16 7-8 10-13 10-11 9-11 12-14 12-13 8-10 13-14 1-2h2l2-4 12-13 7-8 9-10 14-17 9-10 18-22h2l2-4 11-12 13-15 7-7 7-8 11-12 1-2h2v-2l8-7 9-10 10-10 7-8 15-16 7-8 9-10 16-17 14-14 1-2h2l2-4h2l2-4 4-4h2l2-4 4-4h2l2-4 84-84h2l2-4 4-4h2l2-4 4-4h2l2-4 4-4h2l2-4h2l2-4h2l2-4 4-4h2l2-4h2l2-4h2l2-4 98-98 6-7h2l1-3 8-7 17-17h2v-2l8-7h2l2-4 4-4h2v-2h2l-1-5-5-5v-2l-4-2-12-12v-2l-4-2-32-32v-2l-4-2-4-4v-2h-2l-7-8-227-227-6-5-6-7-6-5-7-8-8-8-11-14-8-14-2-5v-17l5-13 9-14 15-16 17-13 14-10 15-10 23-12 21-8 16-5 23-4 25-2h18l29 3 30 5 27 9 29 13 19 12 14 10 11 11 4-2 8-7 12-11 8-7 8-8 8-7 9-8 17-13 13-11 10-8 10-9 13-11 8-7 14-12 6-6h2v-2l11-9 11-10 14-11 13-11 10-8 10-9 14-12 11-10 8-7 10-9 11-9 10-9 22-18 9-8 11-9 11-10 11-9 10-9 8-7 14-12 10-9 11-9 17-14 10-9 11-9 10-9 11-9 10-9 8-7 14-12 10-9 11-9 11-10 8-7 13-11 14-11 11-9 10-9 11-9 7-7-1-7-10-22-5-16-4-19-1-8v-24l5-25 6-29 5-12 9-16 9-14 8-12 9-11 11-12 9-8z" fill="#fff"/>
<path transform="translate(2047,623)" d="m0 0h1v6l-3-1z" fill="#fff"/>
<path transform="translate(1290,1288)" d="m0 0 5 1v2l-4-1z" fill="#fff"/>
<path transform="translate(0,2046)" d="m0 0 4 1-4 1z"/>
<path transform="translate(1296,1287)" d="m0 0 2 1-2 1z" fill="#aaa"/>
<path transform="translate(1439)" d="m0 0 3 1z" fill="#fff"/>
<path transform="translate(75,2047)" d="m0 0 2 1z" fill="#fff"/>
<path transform="translate(1437)" d="m0 0" fill="#fff"/>
</svg>
