<?xml version="1.0" encoding="UTF-8"?>
<svg version="1.1" viewBox="0 0 1024 1024" width="1280" height="1280" xmlns="http://www.w3.org/2000/svg">
<path transform="translate(507,25)" d="m0 0 34 1 33 3 37 6 36 9 25 8 19 7 21 9 25 12 22 12 19 12 23 16 14 11 11 9 11 10 8 7 28 28 9 11 12 14 12 16 11 16 12 19 12 21 15 30 11 27 12 36 7 26 6 31 4 30 2 25v51l-4 41-5 29-6 27-8 27-10 28-12 28-14 28-13 22-16 24-14 19-11 13-9 11-16 17-17 17-8 7-14 12-14 11-18 13-15 10-20 12-22 12-25 12-28 11-30 10-32 8-27 5-31 4-27 2h-44l-35-3-33-5-38-9-29-9-27-10-28-13-20-10-28-17-18-12-19-14-13-11-11-9-8-8-8-7-18-18-7-8-9-10-11-14-15-20-10-15-11-18-9-16-11-21-12-28-10-27-9-30-7-31-5-32-3-29-1-35 1-29 4-38 5-28 7-30 9-29 10-27 12-27 10-19 6-11 8-14 16-24 13-18 13-16 9-10 7-8 8-8 1-2h2l2-4 4-4h2v-2l8-7 12-11 11-9 15-12 17-12 20-13 24-14 26-13 28-12 23-8 29-9 31-7 31-5 33-3z" fill="#3298FE"/>
<path transform="translate(505,204)" d="m0 0h11l20 2 22 5 15 5 19 9 16 10 10 8 14 13 9 11 8 11 10 18 7 16 5 18 3 15 2 26v95l17 1 17 3 16 7 10 7 7 6 9 13 6 13 3 14 1 29v184l-2 21-4 12-5 9-8 10-9 9-13 8-14 5-11 2h-371l-13-3-17-8-9-7-9-9-8-13-4-12-2-12-1-20v-199l2-14 5-13 7-12 11-12 11-8 10-5 13-4 25-1 2-1v-100l2-23 4-18 6-18 9-19 7-11 9-12 9-10 11-11 13-10 18-11 15-7 18-6 18-4z" fill="#FEFEFE"/>
<path transform="translate(500,277)" d="m0 0h23l16 4 12 5 14 8 11 9 8 9 9 15 5 11 4 16 1 58v55l-4 1h-96l-81-1-1-37v-58l1-19 4-16 8-17 11-14 9-9 14-9 8-4 15-5z" fill="#3298FF"/>
<path transform="translate(503,539)" d="m0 0h15l16 4 12 6 10 8 6 7 6 10 5 11 2 9v17l-4 13-5 10-8 11-12 11-1 3v59l-3 10-6 8-8 7-12 5h-8l-11-4-9-7-6-9-2-6-1-7-1-59-13-13-8-11-5-10-3-13v-15l4-15 7-13 11-12 10-7 14-6z" fill="#3298FF"/>
</svg>
