<?xml version="1.0" encoding="UTF-8"?>
<svg version="1.1" viewBox="0 0 2048 2028" width="1280" height="1280" xmlns="http://www.w3.org/2000/svg">
<path transform="translate(361,359)" d="m0 0h1325l23 3 19 5 19 8 17 10 11 8 13 11 10 10 10 13 9 14 8 16 7 19 4 17 2 16v839l-3 21-6 21-8 19-8 14-10 14-12 13-10 10-18 13-16 9-19 8-20 6 203 1 19 1 13 3 14 6 14 10 11 11 9 14 5 12 3 12 1 8v10l-2 14-6 17-6 10-8 10-9 9-13 8-14 6-15 3-18 1-1791-1-16-4-16-8-13-10-9-10-8-13-5-12-3-13v-21l4-17 5-12 8-12 11-12 13-9 12-6 16-4 12-1 211-1-21-6-18-8-13-7-12-8-13-11-6-5-7-8-10-12-12-19-9-20-6-21-3-19-1-15v-820l2-21 5-21 7-19 10-19 12-17 12-13 8-8 17-13 19-11 17-7 13-4 20-4zm745 246v171l-29 5-39 8-37 10-36 12-27 11-24 11-25 13-17 10-17 11-20 14-14 11-14 12-8 7-12 11-19 19-7 8-9 10-8 10-11 14-13 18-13 20-12 20-12 22-11 22-14 32-13 35-9 28-11 40-6 24-1 6 6-5 9-12 12-14 9-11 7-7v-2l3-1 7-8 14-14 8-7 11-10 14-11 18-14 27-18 24-14 21-11 20-9 25-10 33-11 34-9 34-7 33-5 37-4 31-2 37-1h14v176l4-2v-2l4-2 11-11 8-7 12-12 8-7 9-9 8-7 17-16 13-12 8-8 8-7 7-7 8-7 9-9 8-7 17-16 7-6v-2l4-2 11-11 8-7 9-9 8-7 17-16 32-30 7-6v-2l4-2 9-9 8-7 15-15 5-10 2-7v-14l-4-11-6-9-15-15h-2v-2l-8-7-16-15-8-7-9-9-8-7-7-7-8-7-7-7-8-7-16-15-12-11-7-7-8-7-8-8-8-7-12-11-17-16-13-12-17-16-8-7-8-8-8-7-9-9-8-7-17-16-10-9-8-7zm-762 892m1353 0v1h6v-1z"/>
</svg>
