<?xml version="1.0" encoding="UTF-8"?>
<svg version="1.1" viewBox="0 0 2048 2048" width="1280" height="1280" xmlns="http://www.w3.org/2000/svg">
<path transform="translate(1361,60)" d="m0 0h49l23 2 23 4 24 6 21 7 21 9 22 11 19 12 16 11 13 10 13 11 8 8 8 7 227 227 7 8 21 21 7 8 12 14 10 14 10 15 12 21 10 21 10 26 7 23 5 22 4 33 1 17v13l-2 27-3 23-6 28-7 24-10 25-13 27-11 19-9 14-8 10-9 10-2 3h-2l-2 4-22 22-8 7-10 8-15 11-27 18-16 10-17 11-24 15-27 18-28 17-25 16-20 13-69 44-13 8-24 15-30 20-22 14-17 11-23 15-22 14-16 9-9 6-7 6-4 1-13-12-17-17-7-8-344-344-6-5-7-8-6-5v-2l-3-1-6-7-3-2v-2l-3-1-7-8-3-2v-2l-3-1-6-7-3-2v-2l-3-1-6-7-3-2v-2l-3-1v-2h-2l-4-4v-2l-4-2-7-8-2-1v-2l-4-2-5-6-8-7-56-56-2-3 1-5 5-5 7-10 10-16 18-27 13-23 20-30 12-19 10-16 16-25 16-24 13-22 18-27 7-11 11-17 8-13 11-18 16-24 10-16 13-19 12-20 7-11 13-20 10-16 12-17 11-14 10-11 1-2h2l2-4 8-8 8-7 15-13 18-13 22-14 18-10 15-7 26-10 31-8 22-4z" fill="#FEFEFE"/>
<path transform="translate(127,85)" d="m0 0 6 1 6 5v2l4 2 11 12 4 3v2l4 2 776 776v2l4 2 8 8v2l4 2 9 9v2l4 2 8 8v2l4 2 8 8v2l4 2 18 18v2l3 1 3 3v2l4 2 6 7 2 1v2l4 2 3 3v2h2l4 5 6 5 6 7 6 5 6 7 7 6v2h2l10 10v2l3 1 3 3v2l4 2 6 7 8 7 4 5 8 7 4 4v2l4 2 21 21v2l4 2 8 8v2l4 2 33 33v2l4 2 21 21v2l4 2 11 11v2l4 2 9 10 5 4 7 8 6 5 7 8 5 4 7 8 5 4 7 8 3 2v2l3 1 7 8 2 1v2l3 1 4 5 2 1v2l4 2 3 3v2h2l4 4v2l4 2 5 5v2l4 2 582 582 5 4 3 4-1 5-10 10-8 7-9 10-31 31-4 5-4 3-5-2-8-8-7-8-142-142-6-5v-2h-2l-7-8-210-210-3-2v-2l-3-1v-2l-3-1v-2l-4-2-18-18v-2l-3-1v-2l-4-2-2-4-3-1-4-5-89-89-8-7-19-19-7-8-10-9-3-1-1 11-10 37-8 25-8 22-10 23-10 21-14 24-12 21-13 21-11 15-13 16-10 13-13 15-14 16-8 7-5 6-8 7-9 10-7 8-5 1-8-7-6-7-8-7-26-26-7-8-10-10-8-7-59-59-7-8-11-11-8-7-26-26-7-8-32-32-8-7-55-55-7-8-15-14-23-23-13-12-16-16-7-6-6 1-10 9-23 23-7 8-8 7-86 86-5 6-6 5-7 8-5 4-7 8-5 4-7 8-6 5-5 6-8 7-19 19-12 13-13 13h-2l-2 4-20 20-8 7-5 5-11 12-6 5-7 8-40 40h-2l-2 4-9 8-7 8-6 5-7 8-6 5-7 8-5 4-7 8-6 5-7 8-5 4-5 6h-2v2l-8 7-12 12-5 6-62 62-8 7-7 7-10 7-19 8-28 12-25 10-13 6-24 10-4 2-3-1 8-13 21-49 11-26 6-13 4-11 6-10 12-13 5-5h2v-2l8-7 12-13 14-14 7-8 4-2 2-4 8-8h2l2-4 95-95h2l2-4 141-141 7-6 7-8 3-1 2-4 30-30 7-6 7-8 63-63h2l2-4 17-17 8-7 15-15 7-8 20-20h2v-2h2l2-4 9-7 1-2-4-2-11-9-25-25-7-8-23-23-7-8-31-31-8-7-51-51-7-8-7-7-8-7-64-64-7-8-8-8-8-7-21-21-7-8-26-26-8-7-30-30-1-3 3-6 12-11 7-7 8-7 18-18 8-7 12-11 26-20 18-13 14-10 19-12 24-13 16-9 23-11 26-10 33-11 29-8 15-4 7-1-7-9-31-31v-2l-4-2-11-12-5-5-16-15-10-10v-2h-2l-7-8-330-330-8-7-44-44-7-8-34-34-8-7-13-13-7-8-13-13-6-8-1-3 16-15 7-7 8-7z" fill="#FEFEFE"/>
</svg>
