<?xml version="1.0" encoding="UTF-8"?>
<svg version="1.1" viewBox="0 0 2048 2048" width="1280" height="1280" xmlns="http://www.w3.org/2000/svg">
<path transform="translate(976,1198)" d="m0 0h93l76 1 48 2 39 3 39 5 34 6 35 8 40 12 33 12 33 13 25 11 16 8 29 15 22 13 21 13 18 12 36 26 16 13 14 11 15 14 8 7 13 12 10 10 7 6 7 8 9 9 7 8 9 10 7 8 13 16 11 14 13 17 14 20 15 23 10 16 12 21 12 22 15 30 18 42 15 41 9 30 10 37 10 50 6 42 4 43 2 32v25l-5 15-6 10-10 11-11 7-6 7h-2l-1 3h-1723l-3-5-9-10-7-5-7-8-7-9-4-17v-30l4-57 4-32 6-36 11-50 7-25 14-43 13-34 17-38 10-21 11-20 14-24 12-20 10-15 9-13 9-12 10-14 14-19 11-13 7-8 14-15 9-10 11-12 14-14 8-7 8-8 8-7 7-7 8-7 13-11 20-15 19-14 18-13 22-14 21-13 21-12 23-12 29-14 20-9 28-11 40-13 30-8 29-7 42-8 26-4 34-3 39-2 27-1z"/>
<path transform="translate(945)" d="m0 0h155l6 1v3l12 2 26 6 27 7 36 12 22 8 19 8 30 15 26 15 18 12 16 11 12 9 14 11 11 9 10 9 8 7 7 6 8 8v2l4 2 7 8 11 12 9 11 10 12 11 15 12 17 13 20 15 26 14 28 11 26 10 27 11 36 7 30 7 41 3 27 1 21v36l-1 23-4 35-7 38-7 29-6 20-9 27-12 29-10 22-10 19-13 23-18 27-12 17-6 8-11 14-12 13-9 10-8 8-2 3h-2l-2 4h-2l-1 3-8 7-10 9-8 7-16 13-13 10-15 10-20 13-25 15-16 8-29 14-33 13-28 9-35 9-29 6-40 6-26 2h-58l-27-2-43-7-31-7-29-9-29-10-29-12-24-11-22-12-23-14-21-14-17-13-13-10-13-11-24-22-18-18-7-8-10-11-11-14-14-18-15-22-12-19-12-21-13-25-11-25-13-35-12-42-6-27-6-38-4-43v-43l3-31 4-29 8-40 8-30 11-33 11-28 12-25 14-27 6-9 6-11 7-10 10-15 30-39 11-12 7-8 12-13 10-10 11-9 12-11 11-9 16-12 13-10 18-12 20-12 22-12 16-8 26-12 29-11 21-7 28-8 39-9 10-2z"/>
<path transform="translate(1116)" d="m0 0h16l-1 4-15-2z"/>
<path transform="translate(934)" d="m0 0h3v3l-4-1z"/>
<path transform="translate(943)" d="m0 0"/>
<path transform="translate(939)" d="m0 0"/>
</svg>
