<?xml version="1.0" encoding="UTF-8"?>
<svg version="1.1" viewBox="0 0 2048 2048" width="1280" height="1280" xmlns="http://www.w3.org/2000/svg">
<path transform="translate(267,421)" d="m0 0h45l359 1h177l220-1h52l41 1 27 2 26 4 18 5 15 6 19 10 17 10 16 13 11 9 18 18 13 17 10 15 9 16 10 24 6 20 4 25 2 24 1 49v667l-1 48-3 30-5 25-6 20-9 20-9 17-11 16-11 14-11 12-11 11-9 7-12 9-16 10-25 12-18 6-26 6-19 3-28 2-29 1h-890l-39-2-23-4-24-7-18-7-22-12-14-10-11-9-14-12-11-11-9-11-10-13-9-14-11-20-8-19-8-21v-2l-3-1v-858l2 4 5-11 8-21 7-16 6-10 6-11 16-23 9-10 14-15 11-9 12-9 16-10 16-9 19-8 15-5 24-5 24-2z"/>
<path transform="translate(1890,544)" d="m0 0h42l18 3 15 6 16 8 16 11 13 13 13 17 9 14 7 16 7 20h2v752h-4l-12 26-12 16-11 12-6 7h-2l-1 3-17 13-16 8-14 6-13 4-30 2h-16l-21-6-21-8-24-12-24-14-25-14-24-14-28-16-26-15-35-20-26-15-49-28-24-14-23-13-21-12-20-12-9-8-1-4-1-273v-232l2-7 5-6 11-7 24-13 18-10 15-9 22-13 24-14 26-15 24-14 25-14 20-12 52-30 27-16 24-14 16-9 23-12 16-7 16-4z"/>
<path transform="translate(2046,1405)" d="m0 0 2 4v7h-3v-4h-2l1-5z"/>
<path transform="translate(2047,631)" d="m0 0"/>
<path transform="translate(2,1454)" d="m0 0"/>
<path transform="translate(2043,1406)" d="m0 0"/>
<path transform="translate(3,591)" d="m0 0"/>
</svg>
