<?xml version="1.0" standalone="no"?>
<svg xmlns:xlink="http://www.w3.org/1999/xlink" id="wave" style="transform:rotate(0deg); transition: 0.3s" viewBox="0 0 1440 490" version="1.1" xmlns="http://www.w3.org/2000/svg"><defs><linearGradient id="sw-gradient-0" x1="0" x2="0" y1="1" y2="0"><stop stop-color="rgba(40.143, 39.477, 219, 1)" offset="0%"/><stop stop-color="rgba(178.41, 206.628, 255, 1)" offset="100%"/></linearGradient></defs><path style="transform:translate(0, 0px); opacity:1" fill="url(#sw-gradient-0)" d="M0,147L80,163.3C160,180,320,212,480,220.5C640,229,800,212,960,228.7C1120,245,1280,294,1440,277.7C1600,261,1760,180,1920,171.5C2080,163,2240,229,2400,269.5C2560,310,2720,327,2880,294C3040,261,3200,180,3360,196C3520,212,3680,327,3840,351.2C4000,376,4160,310,4320,236.8C4480,163,4640,82,4800,98C4960,114,5120,229,5280,245C5440,261,5600,180,5760,130.7C5920,82,6080,65,6240,57.2C6400,49,6560,49,6720,65.3C6880,82,7040,114,7200,163.3C7360,212,7520,278,7680,294C7840,310,8000,278,8160,245C8320,212,8480,180,8640,155.2C8800,131,8960,114,9120,106.2C9280,98,9440,98,9600,114.3C9760,131,9920,163,10080,220.5C10240,278,10400,359,10560,375.7C10720,392,10880,343,11040,302.2C11200,261,11360,229,11440,212.3L11520,196L11520,490L11440,490C11360,490,11200,490,11040,490C10880,490,10720,490,10560,490C10400,490,10240,490,10080,490C9920,490,9760,490,9600,490C9440,490,9280,490,9120,490C8960,490,8800,490,8640,490C8480,490,8320,490,8160,490C8000,490,7840,490,7680,490C7520,490,7360,490,7200,490C7040,490,6880,490,6720,490C6560,490,6400,490,6240,490C6080,490,5920,490,5760,490C5600,490,5440,490,5280,490C5120,490,4960,490,4800,490C4640,490,4480,490,4320,490C4160,490,4000,490,3840,490C3680,490,3520,490,3360,490C3200,490,3040,490,2880,490C2720,490,2560,490,2400,490C2240,490,2080,490,1920,490C1760,490,1600,490,1440,490C1280,490,1120,490,960,490C800,490,640,490,480,490C320,490,160,490,80,490L0,490Z"/><defs><linearGradient id="sw-gradient-1" x1="0" x2="0" y1="1" y2="0"><stop stop-color="rgba(18.193, 21.36, 68.724, 1)" offset="0%"/><stop stop-color="rgba(39.038, 47.958, 182.57, 1)" offset="100%"/></linearGradient></defs><path style="transform:translate(0, 50px); opacity:0.9" fill="url(#sw-gradient-1)" d="M0,245L80,269.5C160,294,320,343,480,351.2C640,359,800,327,960,326.7C1120,327,1280,359,1440,343C1600,327,1760,261,1920,245C2080,229,2240,261,2400,294C2560,327,2720,359,2880,383.8C3040,408,3200,425,3360,367.5C3520,310,3680,180,3840,106.2C4000,33,4160,16,4320,65.3C4480,114,4640,229,4800,228.7C4960,229,5120,114,5280,65.3C5440,16,5600,33,5760,65.3C5920,98,6080,147,6240,155.2C6400,163,6560,131,6720,130.7C6880,131,7040,163,7200,155.2C7360,147,7520,98,7680,89.8C7840,82,8000,114,8160,163.3C8320,212,8480,278,8640,294C8800,310,8960,278,9120,245C9280,212,9440,180,9600,147C9760,114,9920,82,10080,114.3C10240,147,10400,245,10560,236.8C10720,229,10880,114,11040,114.3C11200,114,11360,229,11440,285.8L11520,343L11520,490L11440,490C11360,490,11200,490,11040,490C10880,490,10720,490,10560,490C10400,490,10240,490,10080,490C9920,490,9760,490,9600,490C9440,490,9280,490,9120,490C8960,490,8800,490,8640,490C8480,490,8320,490,8160,490C8000,490,7840,490,7680,490C7520,490,7360,490,7200,490C7040,490,6880,490,6720,490C6560,490,6400,490,6240,490C6080,490,5920,490,5760,490C5600,490,5440,490,5280,490C5120,490,4960,490,4800,490C4640,490,4480,490,4320,490C4160,490,4000,490,3840,490C3680,490,3520,490,3360,490C3200,490,3040,490,2880,490C2720,490,2560,490,2400,490C2240,490,2080,490,1920,490C1760,490,1600,490,1440,490C1280,490,1120,490,960,490C800,490,640,490,480,490C320,490,160,490,80,490L0,490Z"/><defs><linearGradient id="sw-gradient-2" x1="0" x2="0" y1="1" y2="0"><stop stop-color="rgba(43.065, 78.77, 178.016, 1)" offset="0%"/><stop stop-color="rgba(96.979, 108.96, 223.554, 1)" offset="100%"/></linearGradient></defs><path style="transform:translate(0, 100px); opacity:0.8" fill="url(#sw-gradient-2)" d="M0,196L80,187.8C160,180,320,163,480,130.7C640,98,800,49,960,57.2C1120,65,1280,131,1440,147C1600,163,1760,131,1920,122.5C2080,114,2240,131,2400,187.8C2560,245,2720,343,2880,343C3040,343,3200,245,3360,228.7C3520,212,3680,278,3840,261.3C4000,245,4160,147,4320,122.5C4480,98,4640,147,4800,138.8C4960,131,5120,65,5280,73.5C5440,82,5600,163,5760,220.5C5920,278,6080,310,6240,326.7C6400,343,6560,343,6720,334.8C6880,327,7040,310,7200,318.5C7360,327,7520,359,7680,359.3C7840,359,8000,327,8160,269.5C8320,212,8480,131,8640,138.8C8800,147,8960,245,9120,302.2C9280,359,9440,376,9600,351.2C9760,327,9920,261,10080,212.3C10240,163,10400,131,10560,155.2C10720,180,10880,261,11040,277.7C11200,294,11360,245,11440,220.5L11520,196L11520,490L11440,490C11360,490,11200,490,11040,490C10880,490,10720,490,10560,490C10400,490,10240,490,10080,490C9920,490,9760,490,9600,490C9440,490,9280,490,9120,490C8960,490,8800,490,8640,490C8480,490,8320,490,8160,490C8000,490,7840,490,7680,490C7520,490,7360,490,7200,490C7040,490,6880,490,6720,490C6560,490,6400,490,6240,490C6080,490,5920,490,5760,490C5600,490,5440,490,5280,490C5120,490,4960,490,4800,490C4640,490,4480,490,4320,490C4160,490,4000,490,3840,490C3680,490,3520,490,3360,490C3200,490,3040,490,2880,490C2720,490,2560,490,2400,490C2240,490,2080,490,1920,490C1760,490,1600,490,1440,490C1280,490,1120,490,960,490C800,490,640,490,480,490C320,490,160,490,80,490L0,490Z"/></svg>